<svg xmlns="http://www.w3.org/2000/svg" viewBox="0 0 182.65 182.65"><defs><style>.cls-1{fill:#0e0e1a;}.cls-2{fill:#e9c92a;}</style></defs><g id="Layer_2" data-name="Layer 2"><g id="Layer_1-2" data-name="Layer 1"><rect class="cls-1" width="182.65" height="182.65" rx="41.68"/><path class="cls-2" d="M144.93,111.66l-50.8,50.52L74,143.67,103,114.88h0l25-24.73-6-5.55q-5.7,2.09-11.28-2.51l-4,4,5,4.54L94.78,107.27h0l-6.38,6.35A35.18,35.18,0,0,1,46,117.25a33.85,33.85,0,0,1-4.56-3.52,33.4,33.4,0,0,1-3.87-4.24,31.48,31.48,0,0,1,3.17-41.67L88.37,20.47,108.49,39,59.19,88a5.47,5.47,0,0,0,.13,8,6.09,6.09,0,0,0,7.86.22,4.58,4.58,0,0,0,.46-.42,4.47,4.47,0,0,0,.42-.45L92.6,70.91h0c.19-.2.39-.4.59-.59a35.16,35.16,0,0,1,43.41-4.65,34.11,34.11,0,0,1,4.58,3.53,32.68,32.68,0,0,1,3.67,4A31.37,31.37,0,0,1,144.93,111.66Z"/></g></g></svg>